<svg width="70" height="20" viewBox="0 0 70 20" fill="none" xmlns="http://www.w3.org/2000/svg">
<path d="M11.1992 16.3125V13.1367L4.77734 10.9922L3.98047 10.7109L4.77734 10.418L11.1992 8.23828V5.07422L0.828125 9.375V12.0117L11.1992 16.3125ZM14.8789 18H19.4609C20.2188 18 20.9297 17.9062 21.5938 17.7188C22.2656 17.5312 22.8789 17.2617 23.4336 16.9102C23.9102 16.6133 24.3477 16.2461 24.7461 15.8086C25.1445 15.3633 25.4922 14.8789 25.7891 14.3555C26.1016 13.7695 26.3438 13.125 26.5156 12.4219C26.6875 11.7188 26.7734 10.9727 26.7734 10.1836V8.77734C26.7734 7.95703 26.6797 7.18359 26.4922 6.45703C26.3125 5.73047 26.0547 5.06641 25.7188 4.46484C25.4297 3.97266 25.0898 3.51953 24.6992 3.10547C24.3164 2.68359 23.8789 2.32812 23.3867 2.03906C22.8242 1.6875 22.1992 1.41797 21.5117 1.23047C20.8242 1.03516 20.0859 0.9375 19.2969 0.9375H14.8789V18ZM18.1953 3.60938H19.2969C19.6953 3.60938 20.0625 3.65625 20.3984 3.75C20.7422 3.83594 21.0547 3.96094 21.3359 4.125C21.7031 4.34375 22.0234 4.625 22.2969 4.96875C22.5781 5.3125 22.8047 5.70312 22.9766 6.14062C23.1172 6.50781 23.2227 6.91406 23.293 7.35938C23.3711 7.79688 23.4102 8.26172 23.4102 8.75391V10.1836C23.4102 10.707 23.3711 11.1953 23.293 11.6484C23.2227 12.0938 23.1172 12.5 22.9766 12.8672C22.8047 13.2891 22.5977 13.6602 22.3555 13.9805C22.1211 14.293 21.8555 14.5508 21.5586 14.7539C21.2695 14.9492 20.9492 15.0977 20.5977 15.1992C20.2461 15.3008 19.8672 15.3516 19.4609 15.3516H18.1953V3.60938ZM41.2109 12.6562H37.918C37.8867 13.1719 37.8008 13.6133 37.6602 13.9805C37.5195 14.3477 37.3281 14.6484 37.0859 14.8828C36.8438 15.1172 36.5508 15.2891 36.207 15.3984C35.8633 15.5078 35.4766 15.5625 35.0469 15.5625C34.7266 15.5625 34.4336 15.5273 34.168 15.457C33.9102 15.3789 33.6758 15.2617 33.4648 15.1055C33.2695 14.9648 33.0938 14.7891 32.9375 14.5781C32.7891 14.3672 32.6602 14.125 32.5508 13.8516C32.3945 13.4531 32.2773 12.9883 32.1992 12.457C32.1289 11.918 32.0938 11.3086 32.0938 10.6289V8.30859C32.0938 7.80859 32.1172 7.34375 32.1641 6.91406C32.2109 6.47656 32.2852 6.07812 32.3867 5.71875C32.5195 5.25781 32.6953 4.85547 32.9141 4.51172C33.1406 4.16016 33.4141 3.89062 33.7344 3.70312C33.9219 3.59375 34.125 3.51172 34.3438 3.45703C34.5703 3.40234 34.8125 3.375 35.0703 3.375C35.5547 3.375 35.9688 3.44141 36.3125 3.57422C36.6641 3.69922 36.957 3.88672 37.1914 4.13672C37.418 4.39453 37.5898 4.71484 37.707 5.09766C37.832 5.48047 37.9102 5.92578 37.9414 6.43359H41.2227C41.1445 5.54297 40.957 4.74219 40.6602 4.03125C40.3633 3.32031 39.957 2.71875 39.4414 2.22656C38.9258 1.73438 38.3008 1.35547 37.5664 1.08984C36.8398 0.824219 36.0078 0.691406 35.0703 0.691406C34.4375 0.691406 33.8438 0.773438 33.2891 0.9375C32.7422 1.09375 32.2383 1.32031 31.7773 1.61719C31.2617 1.96875 30.8008 2.39844 30.3945 2.90625C29.9883 3.41406 29.6602 3.99219 29.4102 4.64062C29.1914 5.17188 29.0273 5.75 28.918 6.375C28.8086 6.99219 28.7539 7.64453 28.7539 8.33203V10.6289C28.7539 11.3633 28.8125 12.0586 28.9297 12.7148C29.0547 13.3711 29.2305 13.9727 29.457 14.5195C29.6914 15.0664 29.9766 15.5664 30.3125 16.0195C30.6562 16.4727 31.0469 16.8594 31.4844 17.1797C31.9609 17.5234 32.4961 17.7891 33.0898 17.9766C33.6914 18.1562 34.3438 18.2461 35.0469 18.2461C35.9375 18.2461 36.75 18.1172 37.4844 17.8594C38.2188 17.5938 38.8516 17.2188 39.3828 16.7344C39.9141 16.25 40.3359 15.6641 40.6484 14.9766C40.9688 14.2891 41.1562 13.5156 41.2109 12.6562ZM47.8555 19.4648L54.2422 0.9375H51.207L44.8203 19.4648H47.8555ZM58.543 16.3242L69.0898 12.0234V9.36328L58.543 5.07422V8.22656L65.2695 10.4414L65.9727 10.6758L65.2578 10.9102L58.543 13.1602V16.3242Z" fill="#08E5F3"/>
</svg>
