<svg width="266" height="32" viewBox="0 0 266 32" fill="none" xmlns="http://www.w3.org/2000/svg">
<path d="M12.1992 23.3125V20.1367L5.77734 17.9922L4.98047 17.7109L5.77734 17.418L12.1992 15.2383V12.0742L1.82812 16.375V19.0117L12.1992 23.3125Z" fill="#08E5F3"/>
<path d="M19.4648 25H24.0469C24.8047 25 25.5156 24.9062 26.1797 24.7188C26.8516 24.5312 27.4648 24.2617 28.0195 23.9102C28.4961 23.6133 28.9336 23.2461 29.332 22.8086C29.7305 22.3633 30.0781 21.8789 30.375 21.3555C30.6875 20.7695 30.9297 20.125 31.1016 19.4219C31.2734 18.7188 31.3594 17.9727 31.3594 17.1836V15.7773C31.3594 14.957 31.2656 14.1836 31.0781 13.457C30.8984 12.7305 30.6406 12.0664 30.3047 11.4648C30.0156 10.9727 29.6758 10.5195 29.2852 10.1055C28.9023 9.68359 28.4648 9.32812 27.9727 9.03906C27.4102 8.6875 26.7852 8.41797 26.0977 8.23047C25.4102 8.03516 24.6719 7.9375 23.8828 7.9375H19.4648V25ZM22.7812 10.6094H23.8828C24.2812 10.6094 24.6484 10.6562 24.9844 10.75C25.3281 10.8359 25.6406 10.9609 25.9219 11.125C26.2891 11.3438 26.6094 11.625 26.8828 11.9688C27.1641 12.3125 27.3906 12.7031 27.5625 13.1406C27.7031 13.5078 27.8086 13.9141 27.8789 14.3594C27.957 14.7969 27.9961 15.2617 27.9961 15.7539V17.1836C27.9961 17.707 27.957 18.1953 27.8789 18.6484C27.8086 19.0938 27.7031 19.5 27.5625 19.8672C27.3906 20.2891 27.1836 20.6602 26.9414 20.9805C26.707 21.293 26.4414 21.5508 26.1445 21.7539C25.8555 21.9492 25.5352 22.0977 25.1836 22.1992C24.832 22.3008 24.4531 22.3516 24.0469 22.3516H22.7812V10.6094ZM37.3242 14.0664V7H34.0664V25H37.3242V15.8477C37.4492 15.6836 37.5859 15.5352 37.7344 15.4023C37.8906 15.2695 38.0625 15.1562 38.25 15.0625C38.4531 14.9531 38.6797 14.8711 38.9297 14.8164C39.1797 14.7617 39.4492 14.7344 39.7383 14.7344C40.1133 14.7344 40.4492 14.7852 40.7461 14.8867C41.043 14.9805 41.2969 15.1289 41.5078 15.332C41.7188 15.5352 41.8789 15.8008 41.9883 16.1289C42.1055 16.457 42.1641 16.8477 42.1641 17.3008V25H45.4219V17.3242C45.4219 16.3945 45.3086 15.6016 45.082 14.9453C44.8633 14.2812 44.5547 13.7383 44.1562 13.3164C43.7578 12.8945 43.2812 12.5859 42.7266 12.3906C42.1719 12.1875 41.5625 12.0859 40.8984 12.0859C40.4453 12.0859 40.0156 12.1523 39.6094 12.2852C39.2031 12.418 38.832 12.6055 38.4961 12.8477C38.2773 13.0039 38.0664 13.1875 37.8633 13.3984C37.668 13.6016 37.4883 13.8242 37.3242 14.0664ZM49.3477 12.3203V14.9805H52.957V22.3516H49.3477V25H59.6836V22.3516H56.25V12.3203H49.3477ZM52.7227 9.07422C52.7227 9.32422 52.7656 9.55859 52.8516 9.77734C52.9453 9.98828 53.0742 10.168 53.2383 10.3164C53.4023 10.4727 53.5977 10.5938 53.8242 10.6797C54.0586 10.7656 54.3164 10.8086 54.5977 10.8086C55.1758 10.8086 55.6328 10.6484 55.9688 10.3281C56.3125 10 56.4844 9.58203 56.4844 9.07422C56.4844 8.56641 56.3125 8.15234 55.9688 7.83203C55.6328 7.50391 55.1758 7.33984 54.5977 7.33984C54.3164 7.33984 54.0586 7.38281 53.8242 7.46875C53.5977 7.55469 53.4023 7.67187 53.2383 7.82031C53.0742 7.97656 52.9453 8.16406 52.8516 8.38281C52.7656 8.59375 52.7227 8.82422 52.7227 9.07422ZM62.4492 18.543V18.7891C62.4492 19.7188 62.582 20.5781 62.8477 21.3672C63.1133 22.1484 63.5039 22.8281 64.0195 23.4062C64.5273 23.9844 65.1523 24.4375 65.8945 24.7656C66.6445 25.0859 67.4961 25.2461 68.4492 25.2461C69.3945 25.2461 70.2383 25.0859 70.9805 24.7656C71.7227 24.4375 72.3477 23.9844 72.8555 23.4062C73.3633 22.8281 73.75 22.1484 74.0156 21.3672C74.2812 20.5781 74.4141 19.7188 74.4141 18.7891V18.543C74.4141 17.6211 74.2812 16.7695 74.0156 15.9883C73.75 15.1992 73.3633 14.5156 72.8555 13.9375C72.3398 13.3594 71.7109 12.9062 70.9688 12.5781C70.2266 12.25 69.3789 12.0859 68.4258 12.0859C67.4727 12.0859 66.625 12.25 65.8828 12.5781C65.1484 12.9062 64.5273 13.3594 64.0195 13.9375C63.5039 14.5156 63.1133 15.1992 62.8477 15.9883C62.582 16.7695 62.4492 17.6211 62.4492 18.543ZM65.707 18.7891V18.543C65.707 18.0273 65.7578 17.5391 65.8594 17.0781C65.9609 16.6172 66.1211 16.2109 66.3398 15.8594C66.5586 15.5078 66.8398 15.2305 67.1836 15.0273C67.5273 14.8242 67.9414 14.7227 68.4258 14.7227C68.918 14.7227 69.3359 14.8242 69.6797 15.0273C70.0234 15.2305 70.3047 15.5078 70.5234 15.8594C70.7344 16.2109 70.8906 16.6172 70.9922 17.0781C71.0938 17.5391 71.1445 18.0273 71.1445 18.543V18.7891C71.1445 19.3203 71.0938 19.8203 70.9922 20.2891C70.8906 20.75 70.7344 21.1523 70.5234 21.4961C70.3047 21.8477 70.0234 22.125 69.6797 22.3281C69.3359 22.5312 68.9258 22.6328 68.4492 22.6328C67.957 22.6328 67.5352 22.5312 67.1836 22.3281C66.8398 22.125 66.5586 21.8477 66.3398 21.4961C66.1211 21.1523 65.9609 20.75 65.8594 20.2891C65.7578 19.8203 65.707 19.3203 65.707 18.7891ZM77.3086 25H80.5781V15.9883C80.6875 15.8164 80.8086 15.6602 80.9414 15.5195C81.0742 15.3789 81.2227 15.2578 81.3867 15.1562C81.5898 15.0156 81.8203 14.9102 82.0781 14.8398C82.3438 14.7695 82.6328 14.7344 82.9453 14.7344C83.3203 14.7344 83.6562 14.7734 83.9531 14.8516C84.25 14.9219 84.5039 15.0508 84.7148 15.2383C84.9258 15.4258 85.0859 15.6836 85.1953 16.0117C85.3125 16.332 85.3711 16.7422 85.3711 17.2422V25H88.6289V17.1953C88.6289 16.2734 88.5195 15.4922 88.3008 14.8516C88.0898 14.2031 87.793 13.6719 87.4102 13.2578C87.0195 12.8516 86.5586 12.5547 86.0273 12.3672C85.4961 12.1797 84.9102 12.0859 84.2695 12.0859C83.7695 12.0859 83.2969 12.1562 82.8516 12.2969C82.4062 12.4375 81.9961 12.6406 81.6211 12.9062C81.4023 13.0625 81.1953 13.2383 81 13.4336C80.8047 13.6289 80.625 13.8438 80.4609 14.0781L80.2617 12.3203H77.3086V25ZM97.875 25.2344C99.1016 25.2344 100.164 24.9961 101.062 24.5195C101.961 24.043 102.617 23.5117 103.031 22.9258L101.402 21.168C101.027 21.6523 100.539 22.0156 99.9375 22.2578C99.3359 22.5 98.7148 22.6211 98.0742 22.6211C97.6211 22.6211 97.2031 22.5508 96.8203 22.4102C96.4375 22.2695 96.0977 22.0703 95.8008 21.8125C95.5117 21.5625 95.2812 21.2852 95.1094 20.9805C94.9375 20.668 94.7969 20.2578 94.6875 19.75V19.7148H103.289V18.332C103.289 17.4023 103.16 16.5547 102.902 15.7891C102.645 15.0156 102.27 14.3555 101.777 13.8086C101.277 13.2617 100.668 12.8398 99.9492 12.543C99.2383 12.2383 98.4258 12.0859 97.5117 12.0859C96.6289 12.0859 95.8125 12.2461 95.0625 12.5664C94.3125 12.8867 93.6641 13.3359 93.1172 13.9141C92.5703 14.4922 92.1445 15.1836 91.8398 15.9883C91.5352 16.7852 91.3828 17.668 91.3828 18.6367V19.1055C91.3828 19.957 91.5352 20.7578 91.8398 21.5078C92.1523 22.25 92.5938 22.8945 93.1641 23.4414C93.7344 23.9961 94.418 24.4336 95.2148 24.7539C96.0117 25.0742 96.8984 25.2344 97.875 25.2344ZM97.4883 14.7227C97.9023 14.7227 98.2656 14.7891 98.5781 14.9219C98.8984 15.0469 99.168 15.2188 99.3867 15.4375C99.6055 15.6641 99.7773 15.9297 99.9023 16.2344C100.027 16.5391 100.09 16.8633 100.09 17.207V17.4648H94.7461C94.8242 17.0508 94.9414 16.6758 95.0977 16.3398C95.2539 16.0039 95.4492 15.7148 95.6836 15.4727C95.9102 15.2305 96.1758 15.0469 96.4805 14.9219C96.7852 14.7891 97.1211 14.7227 97.4883 14.7227ZM132.281 19.6562H128.988C128.957 20.1719 128.871 20.6133 128.73 20.9805C128.59 21.3477 128.398 21.6484 128.156 21.8828C127.914 22.1172 127.621 22.2891 127.277 22.3984C126.934 22.5078 126.547 22.5625 126.117 22.5625C125.797 22.5625 125.504 22.5273 125.238 22.457C124.98 22.3789 124.746 22.2617 124.535 22.1055C124.34 21.9648 124.164 21.7891 124.008 21.5781C123.859 21.3672 123.73 21.125 123.621 20.8516C123.465 20.4531 123.348 19.9883 123.27 19.457C123.199 18.918 123.164 18.3086 123.164 17.6289V15.3086C123.164 14.8086 123.188 14.3438 123.234 13.9141C123.281 13.4766 123.355 13.0781 123.457 12.7188C123.59 12.2578 123.766 11.8555 123.984 11.5117C124.211 11.1602 124.484 10.8906 124.805 10.7031C124.992 10.5938 125.195 10.5117 125.414 10.457C125.641 10.4023 125.883 10.375 126.141 10.375C126.625 10.375 127.039 10.4414 127.383 10.5742C127.734 10.6992 128.027 10.8867 128.262 11.1367C128.488 11.3945 128.66 11.7148 128.777 12.0977C128.902 12.4805 128.98 12.9258 129.012 13.4336H132.293C132.215 12.543 132.027 11.7422 131.73 11.0312C131.434 10.3203 131.027 9.71875 130.512 9.22656C129.996 8.73438 129.371 8.35547 128.637 8.08984C127.91 7.82422 127.078 7.69141 126.141 7.69141C125.508 7.69141 124.914 7.77344 124.359 7.9375C123.812 8.09375 123.309 8.32031 122.848 8.61719C122.332 8.96875 121.871 9.39844 121.465 9.90625C121.059 10.4141 120.73 10.9922 120.48 11.6406C120.262 12.1719 120.098 12.75 119.988 13.375C119.879 13.9922 119.824 14.6445 119.824 15.332V17.6289C119.824 18.3633 119.883 19.0586 120 19.7148C120.125 20.3711 120.301 20.9727 120.527 21.5195C120.762 22.0664 121.047 22.5664 121.383 23.0195C121.727 23.4727 122.117 23.8594 122.555 24.1797C123.031 24.5234 123.566 24.7891 124.16 24.9766C124.762 25.1562 125.414 25.2461 126.117 25.2461C127.008 25.2461 127.82 25.1172 128.555 24.8594C129.289 24.5938 129.922 24.2188 130.453 23.7344C130.984 23.25 131.406 22.6641 131.719 21.9766C132.039 21.2891 132.227 20.5156 132.281 19.6562ZM142.887 25H146.191V24.8008C146.027 24.4805 145.902 24.0977 145.816 23.6523C145.73 23.207 145.688 22.6445 145.688 21.9648V16.5273C145.688 15.793 145.551 15.1484 145.277 14.5938C145.004 14.0312 144.625 13.5664 144.141 13.1992C143.656 12.832 143.082 12.5547 142.418 12.3672C141.762 12.1797 141.051 12.0859 140.285 12.0859C139.434 12.0859 138.676 12.1953 138.012 12.4141C137.355 12.625 136.801 12.9141 136.348 13.2812C135.887 13.6484 135.535 14.0742 135.293 14.5586C135.059 15.043 134.941 15.5547 134.941 16.0938H138.199C138.199 15.8672 138.23 15.6602 138.293 15.4727C138.363 15.2852 138.469 15.125 138.609 14.9922C138.766 14.8438 138.969 14.7305 139.219 14.6523C139.469 14.5664 139.766 14.5234 140.109 14.5234C140.5 14.5234 140.84 14.5742 141.129 14.6758C141.426 14.7695 141.672 14.9062 141.867 15.0859C142.055 15.2578 142.195 15.4648 142.289 15.707C142.383 15.9414 142.43 16.207 142.43 16.5039V17.2539H140.613C139.676 17.2539 138.844 17.3398 138.117 17.5117C137.398 17.6758 136.793 17.918 136.301 18.2383C135.754 18.5898 135.344 19.0391 135.07 19.5859C134.797 20.125 134.66 20.7461 134.66 21.4492C134.66 21.9961 134.77 22.5039 134.988 22.9727C135.207 23.4336 135.512 23.832 135.902 24.168C136.293 24.5039 136.758 24.7656 137.297 24.9531C137.844 25.1406 138.441 25.2344 139.09 25.2344C139.488 25.2344 139.859 25.1953 140.203 25.1172C140.547 25.0469 140.863 24.9453 141.152 24.8125C141.434 24.6875 141.691 24.5391 141.926 24.3672C142.16 24.1953 142.367 24.0117 142.547 23.8164C142.586 24.043 142.633 24.2578 142.688 24.4609C142.742 24.6641 142.809 24.8438 142.887 25ZM139.781 22.7148C139.477 22.7148 139.207 22.6797 138.973 22.6094C138.746 22.5312 138.555 22.4297 138.398 22.3047C138.242 22.1719 138.121 22.0117 138.035 21.8242C137.957 21.6289 137.918 21.418 137.918 21.1914C137.918 20.9023 137.973 20.6367 138.082 20.3945C138.191 20.1445 138.359 19.9297 138.586 19.75C138.812 19.5781 139.105 19.4453 139.465 19.3516C139.824 19.25 140.258 19.1992 140.766 19.1992H142.43V21.3789C142.336 21.543 142.207 21.707 142.043 21.8711C141.879 22.0273 141.684 22.168 141.457 22.293C141.23 22.418 140.977 22.5195 140.695 22.5977C140.414 22.6758 140.109 22.7148 139.781 22.7148ZM157.559 21.5195C157.559 21.7148 157.508 21.8945 157.406 22.0586C157.312 22.2227 157.168 22.3672 156.973 22.4922C156.77 22.6172 156.508 22.7188 156.188 22.7969C155.875 22.8672 155.508 22.9023 155.086 22.9023C154.734 22.9023 154.391 22.8672 154.055 22.7969C153.727 22.7266 153.434 22.6133 153.176 22.457C152.918 22.3086 152.707 22.1133 152.543 21.8711C152.379 21.6211 152.285 21.3242 152.262 20.9805H149.156C149.156 21.4961 149.281 22.0117 149.531 22.5273C149.789 23.0352 150.164 23.4883 150.656 23.8867C151.148 24.293 151.758 24.6211 152.484 24.8711C153.219 25.1211 154.062 25.2461 155.016 25.2461C155.883 25.2461 156.668 25.1523 157.371 24.9648C158.074 24.7695 158.676 24.5 159.176 24.1562C159.668 23.8125 160.047 23.4062 160.312 22.9375C160.586 22.4609 160.723 21.9414 160.723 21.3789C160.723 20.7695 160.586 20.2461 160.312 19.8086C160.047 19.3633 159.676 18.9844 159.199 18.6719C158.723 18.3672 158.156 18.1172 157.5 17.9219C156.844 17.7266 156.133 17.5664 155.367 17.4414C154.836 17.3633 154.398 17.2734 154.055 17.1719C153.711 17.0625 153.441 16.9414 153.246 16.8086C153.043 16.6836 152.902 16.543 152.824 16.3867C152.746 16.2227 152.707 16.0469 152.707 15.8594C152.707 15.6719 152.75 15.4961 152.836 15.332C152.93 15.1602 153.062 15.0117 153.234 14.8867C153.422 14.7461 153.664 14.6367 153.961 14.5586C154.258 14.4805 154.605 14.4414 155.004 14.4414C155.473 14.4414 155.871 14.5 156.199 14.6172C156.535 14.7344 156.801 14.8906 156.996 15.0859C157.137 15.2344 157.242 15.4023 157.312 15.5898C157.383 15.7695 157.418 15.9648 157.418 16.1758H160.676C160.676 15.5898 160.547 15.0469 160.289 14.5469C160.031 14.0469 159.66 13.6133 159.176 13.2461C158.684 12.8867 158.086 12.6055 157.383 12.4023C156.68 12.1914 155.887 12.0859 155.004 12.0859C154.16 12.0859 153.402 12.1914 152.73 12.4023C152.059 12.6133 151.488 12.8984 151.02 13.2578C150.551 13.6172 150.191 14.0352 149.941 14.5117C149.691 14.9883 149.566 15.4883 149.566 16.0117C149.566 16.5508 149.688 17.0273 149.93 17.4414C150.18 17.8555 150.523 18.2188 150.961 18.5312C151.398 18.8516 151.922 19.125 152.531 19.3516C153.148 19.5703 153.828 19.7539 154.57 19.9023C155.156 20.0117 155.641 20.1211 156.023 20.2305C156.406 20.3398 156.715 20.457 156.949 20.582C157.176 20.7148 157.332 20.8555 157.418 21.0039C157.512 21.1523 157.559 21.3242 157.559 21.5195ZM169.77 9.21484H166.512V12.3203H163.617V14.7227H166.512V20.4883C166.512 21.3242 166.621 22.043 166.84 22.6445C167.059 23.2383 167.371 23.7266 167.777 24.1094C168.176 24.5 168.656 24.7891 169.219 24.9766C169.789 25.1562 170.422 25.2461 171.117 25.2461C171.477 25.2461 171.84 25.2266 172.207 25.1875C172.582 25.1562 172.941 25.1094 173.285 25.0469C173.629 24.9844 173.953 24.9062 174.258 24.8125C174.562 24.7109 174.828 24.5938 175.055 24.4609L174.738 22.2227C174.59 22.2617 174.41 22.3008 174.199 22.3398C173.996 22.3789 173.777 22.4141 173.543 22.4453C173.301 22.4844 173.047 22.5156 172.781 22.5391C172.523 22.5625 172.27 22.5742 172.02 22.5742C171.676 22.5742 171.363 22.5352 171.082 22.457C170.809 22.3789 170.574 22.2461 170.379 22.0586C170.184 21.8789 170.031 21.6367 169.922 21.332C169.82 21.0195 169.77 20.6328 169.77 20.1719V14.7227H174.504V12.3203H169.77V9.21484ZM179.074 12.3203V14.9805H182.684V22.3516H179.074V25H189.41V22.3516H185.977V12.3203H179.074ZM182.449 9.07422C182.449 9.32422 182.492 9.55859 182.578 9.77734C182.672 9.98828 182.801 10.168 182.965 10.3164C183.129 10.4727 183.324 10.5938 183.551 10.6797C183.785 10.7656 184.043 10.8086 184.324 10.8086C184.902 10.8086 185.359 10.6484 185.695 10.3281C186.039 10 186.211 9.58203 186.211 9.07422C186.211 8.56641 186.039 8.15234 185.695 7.83203C185.359 7.50391 184.902 7.33984 184.324 7.33984C184.043 7.33984 183.785 7.38281 183.551 7.46875C183.324 7.55469 183.129 7.67187 182.965 7.82031C182.801 7.97656 182.672 8.16406 182.578 8.38281C182.492 8.59375 182.449 8.82422 182.449 9.07422ZM193.301 7V9.66016H197.098V22.3516H193.301V25H204.023V22.3516H200.391V7H193.301ZM210.293 14.0664V7H207.035V25H210.293V15.8477C210.418 15.6836 210.555 15.5352 210.703 15.4023C210.859 15.2695 211.031 15.1562 211.219 15.0625C211.422 14.9531 211.648 14.8711 211.898 14.8164C212.148 14.7617 212.418 14.7344 212.707 14.7344C213.082 14.7344 213.418 14.7852 213.715 14.8867C214.012 14.9805 214.266 15.1289 214.477 15.332C214.688 15.5352 214.848 15.8008 214.957 16.1289C215.074 16.457 215.133 16.8477 215.133 17.3008V25H218.391V17.3242C218.391 16.3945 218.277 15.6016 218.051 14.9453C217.832 14.2812 217.523 13.7383 217.125 13.3164C216.727 12.8945 216.25 12.5859 215.695 12.3906C215.141 12.1875 214.531 12.0859 213.867 12.0859C213.414 12.0859 212.984 12.1523 212.578 12.2852C212.172 12.418 211.801 12.6055 211.465 12.8477C211.246 13.0039 211.035 13.1875 210.832 13.3984C210.637 13.6016 210.457 13.8242 210.293 14.0664ZM221.004 18.543V18.7891C221.004 19.7188 221.137 20.5781 221.402 21.3672C221.668 22.1484 222.059 22.8281 222.574 23.4062C223.082 23.9844 223.707 24.4375 224.449 24.7656C225.199 25.0859 226.051 25.2461 227.004 25.2461C227.949 25.2461 228.793 25.0859 229.535 24.7656C230.277 24.4375 230.902 23.9844 231.41 23.4062C231.918 22.8281 232.305 22.1484 232.57 21.3672C232.836 20.5781 232.969 19.7188 232.969 18.7891V18.543C232.969 17.6211 232.836 16.7695 232.57 15.9883C232.305 15.1992 231.918 14.5156 231.41 13.9375C230.895 13.3594 230.266 12.9062 229.523 12.5781C228.781 12.25 227.934 12.0859 226.98 12.0859C226.027 12.0859 225.18 12.25 224.438 12.5781C223.703 12.9062 223.082 13.3594 222.574 13.9375C222.059 14.5156 221.668 15.1992 221.402 15.9883C221.137 16.7695 221.004 17.6211 221.004 18.543ZM224.262 18.7891V18.543C224.262 18.0273 224.312 17.5391 224.414 17.0781C224.516 16.6172 224.676 16.2109 224.895 15.8594C225.113 15.5078 225.395 15.2305 225.738 15.0273C226.082 14.8242 226.496 14.7227 226.98 14.7227C227.473 14.7227 227.891 14.8242 228.234 15.0273C228.578 15.2305 228.859 15.5078 229.078 15.8594C229.289 16.2109 229.445 16.6172 229.547 17.0781C229.648 17.5391 229.699 18.0273 229.699 18.543V18.7891C229.699 19.3203 229.648 19.8203 229.547 20.2891C229.445 20.75 229.289 21.1523 229.078 21.4961C228.859 21.8477 228.578 22.125 228.234 22.3281C227.891 22.5312 227.48 22.6328 227.004 22.6328C226.512 22.6328 226.09 22.5312 225.738 22.3281C225.395 22.125 225.113 21.8477 224.895 21.4961C224.676 21.1523 224.516 20.75 224.414 20.2891C224.312 19.8203 224.262 19.3203 224.262 18.7891Z" fill="white"/>
<path d="M242.613 26.4648L249 7.9375H245.965L239.578 26.4648H242.613ZM253.301 23.3242L263.848 19.0234V16.3633L253.301 12.0742V15.2266L260.027 17.4414L260.73 17.6758L260.016 17.9102L253.301 20.1602V23.3242Z" fill="#08E5F3"/>
</svg>
